<?xml version="1.0" encoding="UTF-8" standalone="no" ?>
<!DOCTYPE svg PUBLIC "-//W3C//DTD SVG 1.1//EN" "http://www.w3.org/Graphics/SVG/1.1/DTD/svg11.dtd">
<svg xmlns="http://www.w3.org/2000/svg" xmlns:xlink="http://www.w3.org/1999/xlink" version="1.1" width="150" height="150" viewBox="0 0 640 640" xml:space="preserve">
<desc>Created with Fabric.js 5.3.0</desc>
<defs>
</defs>
<g transform="matrix(1.2715782754 0 0 1.2715782754 318.5298024902 320)" id="pEJFIdYzy0GIMsyu8LnjM"  >
<path style="stroke: rgb(225,29,72); stroke-width: 0; stroke-dasharray: none; stroke-linecap: butt; stroke-dashoffset: 0; stroke-linejoin: miter; stroke-miterlimit: 4; fill: rgb(9,9,9); fill-rule: nonzero; opacity: 1;" vector-effect="non-scaling-stroke"  transform=" translate(0, 0)" d="M 0 -232.35294 C 128.25882 -232.35294 232.35294 -128.25882 232.35294 0 C 232.35294 128.25882 128.25882 232.35294 0 232.35294 C -128.25882 232.35294 -232.35294 128.25882 -232.35294 0 C -232.35294 -128.25882 -128.25882 -232.35294 0 -232.35294 z" stroke-linecap="round" />
</g>
<g transform="matrix(0.9427241031 0 0 0.9427241031 336.6858402832 303.2379781533)" id="AXniuJWmQsvrfKraFzq1J"  >
<path style="stroke: rgb(0,0,0); stroke-width: 0; stroke-dasharray: none; stroke-linecap: butt; stroke-dashoffset: 0; stroke-linejoin: miter; stroke-miterlimit: 4; fill: rgb(225,29,72); fill-rule: nonzero; opacity: 1;" vector-effect="non-scaling-stroke"  transform=" translate(-264.9857360745, -222.3422294016)" d="M 4.17004 345.869 C 0.34089000000000036 343.79178 -1.1101999999999999 339.02442 0.9122700000000004 335.16608 L 20.51786 297.76388000000003 C 21.50046 295.88934 23.301499999999997 294.58067000000005 25.387909999999998 294.22522000000004 C 27.47432 293.86977 29.60709 294.50826000000006 31.15496 295.9517 L 140.7277 398.13205000000005 C 162.62518 360.72583000000003 202.51096 286.31316000000004 221.43008 211.45519000000004 C 247.44639 108.51556000000005 241.9838 72.59659000000005 233.71754 4.7728900000000465 C 233.54161000000002 3.3293900000000463 234.11456 1.8959200000000465 235.23701000000003 0.9713800000000465 C 236.35945000000004 0.04684000000004651 237.87613000000002 -0.24090999999995355 239.25919000000002 0.2082900000000465 C 313.2632 24.243620000000046 396.56041000000005 48.80050000000005 426.38306 134.33088000000004 L 525.93549 155.72815000000003 C 528.08647 156.19047000000003 529.6999999999999 157.97777000000002 529.94065 160.16467000000003 C 530.18131 162.35157000000004 528.99507 164.44698000000002 526.99609 165.36599000000004 L 437.74194 206.39974000000004 C 437.86202 222.46217000000004 436.71295 239.92273000000003 434.13602 258.93426000000005 C 410.91168999999996 430.27372 190.14802999999998 427.14742 137.00653999999997 423.87606000000005 L 60.85417999999997 444.46238000000005 C 58.56931999999997 445.08005 56.130069999999975 444.38704000000007 54.51125999999997 442.66031000000004 L 16.54686999999997 402.16496000000006 C 15.80636999999997 401.37509000000006 15.63651999999997 400.20745000000005 16.12130999999997 399.23935000000006 C 16.60609999999997 398.27126000000004 17.64280999999997 397.70781000000005 18.71885999999997 397.82761000000005 L 120.92622999999998 409.20633000000004 z" stroke-linecap="round" />
</g>
</svg>